<?xml version="1.0" encoding="utf-8"?>
<!-- Generator: Adobe Illustrator 19.0.0, SVG Export Plug-In . SVG Version: 6.00 Build 0)  -->
<svg version="1.1" xmlns="http://www.w3.org/2000/svg" xmlns:xlink="http://www.w3.org/1999/xlink" x="0px" y="0px"
	 viewBox="0 0 500 500" style="enable-background:new 0 0 500 500;" xml:space="preserve">
<style type="text/css">
	.st0{fill:none;stroke:#000000;stroke-width:10;stroke-miterlimit:10;}
</style>
<g id="Layer_1">
	<g id="XMLID_1_">
		<path id="XMLID_16_" d="M250,24.3c30.5,0,60,6,87.9,17.7c26.9,11.4,51,27.6,71.8,48.4c20.7,20.7,37,44.9,48.4,71.8
			c11.8,27.8,17.7,57.4,17.7,87.9s-6,60-17.7,87.9c-11.4,26.9-27.6,51-48.4,71.8c-20.7,20.7-44.9,37-71.8,48.4
			c-27.8,11.8-57.4,17.7-87.9,17.7s-60-6-87.9-17.7c-26.9-11.4-51-27.6-71.8-48.4S53.4,364.9,42,338c-11.8-27.8-17.7-57.4-17.7-87.9
			s6-60,17.7-87.9c11.4-26.9,27.6-51,48.4-71.8s44.9-37,71.8-48.4C190,30.3,219.5,24.3,250,24.3 M250,14.3
			c-130.2,0-235.8,105.6-235.8,235.8S119.8,485.9,250,485.9s235.8-105.6,235.8-235.8S380.2,14.3,250,14.3L250,14.3z"/>
	</g>
</g>
<g id="Layer_1_copy">
	<g id="XMLID_4_">
		<path id="XMLID_22_" d="M250,14.3C380,14.3,486,120,486,250H250V14.3z"/>
	</g>
	<line id="XMLID_3_" class="st0" x1="250" y1="14" x2="250" y2="486"/>
	<line id="XMLID_2_" class="st0" x1="19" y1="250" x2="481" y2="250"/>
</g>
</svg>
